<?xml version="1.0" standalone="no"?>
<!DOCTYPE svg PUBLIC "-//W3C//DTD SVG 20010904//EN"
 "http://www.w3.org/TR/2001/REC-SVG-20010904/DTD/svg10.dtd">
<svg version="1.0" xmlns="http://www.w3.org/2000/svg"
 width="700.000000pt" height="700.000000pt" viewBox="0 0 700.000000 700.000000"
 preserveAspectRatio="xMidYMid meet">
<metadata>
Created by potrace 1.11, written by Peter Selinger 2001-2013
</metadata>
<g transform="translate(0.000000,700.000000) scale(0.100000,-0.100000)"
fill="#000000" stroke="none">
<path d="M2853 6361 c-354 -351 -643 -641 -643 -644 0 -4 155 -7 345 -7 l345
0 0 -1250 0 -1250 -460 0 c-492 0 -504 1 -530 49 -7 13 -10 297 -10 840 l0
821 340 0 c187 0 340 4 340 8 0 5 -291 296 -646 647 l-646 638 -646 -646 -647
-647 343 0 342 0 0 -852 c0 -952 2 -988 65 -1174 157 -470 557 -794 1050 -853
53 -7 299 -11 598 -11 l507 0 0 -1015 0 -1015 610 0 610 0 0 1014 0 1015 568
4 c612 4 608 4 792 62 380 121 694 444 809 833 50 166 51 189 51 1120 l0 872
332 0 333 0 -645 645 c-355 355 -647 645 -650 645 -3 0 -298 -290 -655 -644
l-650 -645 363 0 362 -1 0 -797 c0 -529 -4 -811 -11 -836 -7 -26 -21 -44 -42
-57 -30 -19 -54 -20 -494 -20 l-463 0 0 1250 0 1250 335 0 c185 0 335 4 335 9
0 8 -1284 1282 -1291 1280 -2 0 -293 -287 -646 -638z"/>
</g>
</svg>
