<svg height="512pt" viewBox="0 0 512 512" width="512pt" xmlns="http://www.w3.org/2000/svg"><path d="m300.929688 512h-88.296876v-148.816406h-71.09375c-50.449218 0-91.492187-40.820313-91.492187-90.996094v-120.289062h-50.046875l94.53125-94.023438 94.535156 94.023438h-50.722656v117.90625c0 4.253906 3.480469 7.714843 7.757812 7.714843h66.53125v-183.496093h-51.167968l94.535156-94.023438 94.53125 94.023438h-49.601562v183.496093h66.53125c4.277343 0 7.757812-3.460937 7.757812-7.714843v-117.90625h-52.285156l94.53125-94.023438 94.535156 94.023438h-48.484375v120.289062c0 50.175781-41.042969 90.996094-91.492187 90.996094h-71.09375zm0 0" fill="#00ccb2"/><path d="m417.46875 57.875-94.535156 94.023438h52.285156v117.90625c0 4.253906-3.480469 7.714843-7.753906 7.714843h-66.53125v-183.496093h49.601562l-94.535156-94.023438-.917969 512h45.847657v-148.816406h71.09375c50.449218 0 91.492187-40.820313 91.492187-90.996094v-120.289062h48.484375zm0 0" fill="#00ab94"/></svg>